<?xml version="1.0" encoding="utf-8"?>
<svg width="500px" height="500px" viewBox="0 0 500 500" version="1.1" xmlns:xlink="http://www.w3.org/1999/xlink" xmlns="http://www.w3.org/2000/svg">
  <defs>
    <path d="M0 0L500 0L500 500L0 500L0 0Z" id="path_1" />
    <path d="M0 6.36999L0 28.89C0.0151596 30.6861 1.0238 32.3261 2.61995 33.15L38.82 51.84C40.1249 52.5185 41.6684 52.5626 43.01 51.96L96.34 31.63C98.078 30.8508 99.1975 29.1247 99.2 27.22L99.2 0L38.2 18.43L0 6.36999Z" id="path_2" />
    <path d="M60.07 0.105621L1.57002 18.9056C0.631798 19.2064 -0.00343323 20.0804 1.52588e-05 21.0656L2.28882e-05 37.7456C0.0180664 38.6023 0.517006 39.3759 1.29003 39.7456L42.07 59.1556C42.6248 59.4209 43.2635 59.4498 43.84 59.2356L105.07 36.3256C105.957 35.9964 106.547 35.1516 106.55 34.2056L106.66 18.5556C106.653 17.4891 105.911 16.5685 104.87 16.3356L61.23 0.0456238C60.8444 -0.0313416 60.4456 -0.0107117 60.07 0.105621L60.07 0.105621Z" id="path_3" />
    <path d="M2.90261 22.6C2.90261 22.6 0.562614 36.33 2.23261 43.05C3.08341 46.7929 4.67839 50.3263 6.92262 53.4401C6.92262 53.4401 -1.45738 65.8401 0.222618 76.2201C1.90262 86.6001 6.22262 87.9501 6.22262 87.9501C6.22262 87.9501 2.54262 107.06 9.22262 113.76C15.9026 120.46 30.6726 127.83 47.0926 124.82C63.5126 121.81 74.5726 121.13 77.9226 115.43C81.2726 109.73 79.2626 84.6001 79.2626 84.6001C79.2626 84.6001 78.5926 56.7901 77.9226 39.6901C77.2526 22.5901 74.9226 8.86008 66.8626 2.16006C58.8026 -4.53995 23.2926 5.85007 12.5726 12.8801C1.85262 19.9101 2.90261 22.6 2.90261 22.6L2.90261 22.6Z" id="path_4" />
    <path d="M78.5926 26.8495C78.5926 26.8495 72.2326 17.1295 63.5126 11.7695C54.7926 6.40953 32.3526 2.38951 23.3026 0.709518C14.2526 -0.970474 4.53262 -0.290482 1.85261 9.70952C-0.8274 19.7095 -0.497391 36.5195 2.18261 43.8895C4.86261 51.2595 15.9226 55.6195 24.6426 50.5995C33.3626 45.5795 57.4826 26.1295 65.8626 25.1295C74.2426 24.1295 77.9226 30.5395 78.5926 26.8495L78.5926 26.8495Z" id="path_5" />
    <path d="M14.2539 1.1525C21.6239 -1.5275 31.0139 0.152496 34.3639 9.5325C37.7139 18.9125 40.7239 46.3925 40.7239 46.3925C40.7239 46.3925 49.1039 47.3925 52.4539 51.0925C55.8039 54.7925 57.4539 64.1625 56.8139 68.8525C56.1739 73.5425 44.4139 82.2525 31.0139 82.5925C17.6139 82.9325 7.88391 76.5925 3.19392 59.4625C-1.49606 42.3325 0.363922 16.3025 0.363922 16.3025C0.363922 16.3025 2.06392 8.63248 4.62392 6.92249" id="path_6" />
    <clipPath id="mask_1">
      <use xlink:href="#path_1" />
    </clipPath>
    <clipPath id="mask_2">
      <use xlink:href="#path_2" />
    </clipPath>
    <clipPath id="mask_3">
      <use xlink:href="#path_3" />
    </clipPath>
    <clipPath id="mask_4">
      <use xlink:href="#path_4" />
    </clipPath>
    <clipPath id="mask_5">
      <use xlink:href="#path_5" />
    </clipPath>
    <clipPath id="mask_6">
      <use xlink:href="#path_6" />
    </clipPath>
  </defs>
  <g id="404">
    <path d="M0 0L500 0L500 500L0 500L0 0Z" id="Background" fill="#FFFFFF" fill-opacity="0" fill-rule="evenodd" stroke="none" />
    <g clip-path="url(#mask_1)">
      <g id="freepik--background-simple--inject-15" transform="translate(44.18401 52.70584)">
        <path d="M0.125992 205.444C0.125992 205.444 2.47599 278.444 63.396 327.044C124.316 375.644 208.716 379.164 277.046 383.784C345.376 388.404 397.816 349.724 405.816 291.294C413.816 232.864 361.516 215.664 333.186 149.094C304.856 82.5242 307.376 60.6542 247.436 19.7142C187.496 -21.2258 93.676 3.86416 44.516 74.0042C-4.64402 144.144 0.125992 205.444 0.125992 205.444L0.125992 205.444Z" id="Shape" fill="#92E3A9" stroke="none" />
        <path d="M0.125992 205.444C0.125992 205.444 2.47599 278.444 63.396 327.044C124.316 375.644 208.716 379.164 277.046 383.784C345.376 388.404 397.816 349.724 405.816 291.294C413.816 232.864 361.516 215.664 333.186 149.094C304.856 82.5242 307.376 60.6542 247.436 19.7142C187.496 -21.2258 93.676 3.86416 44.516 74.0042C-4.64402 144.144 0.125992 205.444 0.125992 205.444L0.125992 205.444Z" id="Shape" fill="#FFFFFF" fill-opacity="0.7" stroke="none" />
      </g>
      <g id="freepik--Hole--inject-15" transform="translate(269.28 364.36)">
        <path d="M0.00997925 21.43C0.00997925 9.60007 32.335 0.0100098 72.21 0.0100098C112.085 0.0100098 144.41 9.60007 144.41 21.43C144.41 33.2599 112.085 42.85 72.21 42.85C32.335 42.85 0.00997925 33.2599 0.00997925 21.43Z" id="Oval" fill="#263238" fill-rule="evenodd" stroke="#263238" stroke-width="1.1930027" stroke-linecap="round" stroke-linejoin="round" />
        <path d="M72.21 9.86002C106.36 9.86002 134.96 16.86 142.47 26.35C143.656 24.9774 144.34 23.2425 144.41 21.43C144.41 9.59 112.08 0 72.21 0C32.34 0 0 9.59 0 21.43C0.0702209 23.2425 0.754272 24.9774 1.94 26.35C9.45001 16.9 38.05 9.86002 72.21 9.86002L72.21 9.86002Z" id="Shape" fill="#FFFFFF" stroke="#263238" stroke-width="1.1930027" stroke-linecap="round" stroke-linejoin="round" />
        <path d="M62.35 40.16C38.23 39.07 20.03 34.16 20.03 28.16C20.0424 27.5052 20.2477 26.8687 20.62 26.33" id="Shape" fill="none" stroke="#FFFFFF" stroke-width="1.1930027" stroke-linecap="round" stroke-linejoin="round" />
        <path d="M118.32 22.32C122.45 24.07 124.81 26.07 124.81 28.2C124.81 34.93 101.35 40.38 72.42 40.38L71.17 40.38" id="Shape" fill="none" stroke="#FFFFFF" stroke-width="1.1930027" stroke-linecap="round" stroke-linejoin="round" />
        <path d="M27.08 22.09C36.15 18.46 53.08 16.01 72.42 16.01C83.425 15.9251 94.4156 16.8254 105.26 18.7001" id="Shape" fill="none" stroke="#FFFFFF" stroke-width="1.1930027" stroke-linecap="round" stroke-linejoin="round" />
        <path d="M61.66 32.38C55.55 31.53 51.46 29.98 51.46 28.2C51.46 25.51 60.85 23.33 72.46 23.33C84.07 23.33 93.41 25.51 93.41 28.2C93.41 30.51 86.51 32.44 77.25 32.94" id="Shape" fill="none" stroke="#FFFFFF" stroke-width="1.1930027" stroke-linecap="round" stroke-linejoin="round" />
      </g>
      <g id="freepik--Landscape--inject-15" transform="translate(34 237.43065)">
        <path d="M17.52 62.2493C49.01 53.2993 115.27 35.6394 151.84 34.3093C201 32.5694 284 68.2493 335.82 74.4993C387.64 80.7493 422.46 78.9693 422.46 78.9693" id="Shape" fill="none" stroke="#263238" stroke-width="1.1930027" stroke-linecap="round" stroke-linejoin="round" />
        <path d="M0 67.3594C0 67.3594 2.72 66.5294 7.49 65.1394" id="Shape" fill="none" stroke="#263238" stroke-width="1.1930027" stroke-linecap="round" stroke-linejoin="round" />
        <path d="M408.47 11.6893C390.318 7.70209 371.747 5.94577 353.17 6.45937C314.75 7.74934 273.17 12.8293 221.76 19.4594C170.35 26.0894 97.14 -10.5406 47.36 3.04936C-2.41998 16.6394 1.36002 20.7294 1.36002 20.7294" id="Shape" fill="none" stroke="#263238" stroke-width="1.1930027" stroke-linecap="round" stroke-linejoin="round" />
        <path d="M422.63 15.3694C422.63 15.3694 420.69 14.7294 417.18 13.7993" id="Shape" fill="none" stroke="#263238" stroke-width="1.1930027" stroke-linecap="round" stroke-linejoin="round" />
      </g>
      <g id="freepik--Character--inject-15">
        <path d="M162.65 313.83C162.298 313.835 161.952 313.741 161.65 313.56C160.741 312.999 160.433 311.824 160.95 310.89C161.44 310.03 285.08 175.2 341.65 125.76C342.059 125.431 342.653 125.475 343.01 125.86C343.352 126.273 343.307 126.881 342.91 127.24C286.62 176.47 164.81 312 164.32 312.85C163.981 313.454 163.343 313.829 162.65 313.83L162.65 313.83Z" id="Shape" fill="#263238" stroke="none" />
        <path d="M169.48 287C169.48 287 175.61 280.46 179.29 280.46C182.97 280.46 189.92 286.59 189.51 289.86C189.1 293.13 182.97 290.27 182.97 290.27C182.97 290.27 177.24 298.04 171.52 296.81C165.8 295.58 169.48 287 169.48 287L169.48 287Z" id="Shape" fill="#92E3A9" stroke="#263238" stroke-width="1.1930027" stroke-linecap="round" stroke-linejoin="round" />
        <path d="M183 290.25C183 290.25 186.75 292.85 187.08 294.68C187.41 296.51 182.92 301.68 177.93 302.84C172.94 304 170.27 301.17 171.77 298.51C173.27 295.85 179.22 290.49 183 290.25L183 290.25Z" id="Shape" fill="#92E3A9" stroke="#263238" stroke-width="1.1930027" stroke-linecap="round" stroke-linejoin="round" />
        <path d="M337 266.56L337 131.27C337 131.27 334.27 141.06 334.27 141.77" id="Shape" fill="none" stroke="#263238" stroke-width="1.1930027" stroke-linecap="round" stroke-linejoin="round" />
        <path d="M289.68 273.69L393.42 273.69L393.42 356.81L289.68 356.81L289.68 273.69Z" id="Rectangle" fill="#92E3A9" fill-rule="evenodd" stroke="#263238" stroke-width="1.1930027" stroke-linecap="round" stroke-linejoin="round" />
        <path d="M338.48 273.34L338.48 268.58C338.48 267.923 337.947 267.39 337.29 267.39C336.633 267.39 336.1 267.923 336.1 268.58L336.1 273.34L338.48 273.34Z" id="Shape" fill="#263238" stroke="none" />
        <path d="M348 261.76L348 262C347.803 261.629 347.42 261.396 347 261.39C346.682 261.39 346.377 261.516 346.151 261.741C345.926 261.967 345.8 262.272 345.8 262.59L345.8 275.3C345.8 277.323 344.163 278.965 342.14 278.97C341.637 278.971 341.139 278.865 340.68 278.66C340.132 279.477 340.259 280.571 340.98 281.24C341.362 281.312 341.751 281.349 342.14 281.35C345.481 281.35 348.19 278.641 348.19 275.3L348.19 269.41L350.93 269.41L348 261.76Z" id="Shape" fill="#263238" stroke="none" />
        <path d="M337.1 130C337.1 130 339.22 122.47 337.34 123.17C335.46 123.87 337.1 130 337.1 130L337.1 130Z" id="Shape" fill="none" stroke="#263238" stroke-width="1.1930027" stroke-linecap="round" stroke-linejoin="round" />
        <path d="M337.1 130C337.1 130 329.1 127.17 329.81 129.76C330.52 132.35 337.1 130 337.1 130L337.1 130Z" id="Shape" fill="none" stroke="#263238" stroke-width="1.1930027" stroke-linecap="round" stroke-linejoin="round" />
        <path d="M164.59 195.63C164.59 195.63 154.72 190.1 135.36 192.87C116 195.64 112.31 211.6 115.47 228.19C118.63 244.78 136.94 258.83 139.71 257.65C142.48 256.47 138.92 219.33 145.24 212.22C151.56 205.11 172.1 206.3 173.24 200.77C174.38 195.24 164.59 195.63 164.59 195.63L164.59 195.63Z" id="Shape" fill="#263238" stroke="#263238" stroke-width="1.1930027" stroke-linecap="round" stroke-linejoin="round" />
        <path d="M130.18 205.48L132.18 218.55C132.18 218.55 119.78 252.4 121.79 257.1C123.8 261.8 142.56 263.46 142.56 263.46C142.56 263.46 173.06 267.15 182.11 263.46C191.16 259.77 186.47 249.05 185.46 246.04C184.45 243.03 178.76 218.89 178.76 218.89C178.76 218.89 180.76 213.19 180.76 210.18C180.76 207.17 180.42 198.78 179.08 196.77C177.74 194.76 154.28 192.41 143.89 194.09C133.5 195.77 128.84 198.45 130.18 205.48L130.18 205.48Z" id="Shape" fill="#757575" stroke="#263238" stroke-width="1.1930027" stroke-linecap="round" stroke-linejoin="round" />
        <path d="M135.55 220.57C135.55 220.57 135.21 249.72 136.89 255.42C138.57 261.12 145.27 267.82 159.34 266.14C173.41 264.46 174.76 251.06 174.76 251.06L173.76 219.9L135.55 220.57Z" id="Shape" fill="#FFFFFF" stroke="#263238" stroke-width="1.1930027" stroke-linecap="round" stroke-linejoin="round" />
        <path d="M159.68 241.51C159.684 242.53 159.073 243.452 158.131 243.845C157.19 244.238 156.104 244.025 155.382 243.305C154.659 242.586 154.441 241.501 154.831 240.558C155.22 239.615 156.14 239 157.16 239C157.827 238.997 158.468 239.261 158.941 239.732C159.414 240.203 159.68 240.843 159.68 241.51L159.68 241.51Z" id="Shape" fill="none" stroke="#263238" stroke-width="1.1930027" />
        <path d="M159.34 252.07C159.34 252.75 158.93 253.364 158.301 253.623C157.672 253.883 156.948 253.737 156.469 253.254C155.989 252.772 155.848 252.048 156.111 251.42C156.374 250.793 156.99 250.386 157.67 250.39C158.115 250.39 158.541 250.567 158.854 250.883C159.168 251.198 159.343 251.625 159.34 252.07L159.34 252.07Z" id="Shape" fill="#263238" stroke="none" />
        <path d="M149.22 230.76C150.29 231.92 150.66 233.31 150.06 233.88C149.46 234.45 148.06 233.97 147.01 232.82C145.96 231.67 145.56 230.28 146.17 229.71C146.78 229.14 148.15 229.61 149.22 230.76L149.22 230.76Z" id="Shape" fill="#263238" stroke="none" />
        <path d="M162.83 230.76C161.76 231.92 161.38 233.31 161.99 233.88C162.6 234.45 163.99 233.97 164.99 232.82C165.99 231.67 166.44 230.28 165.83 229.71C165.22 229.14 163.9 229.61 162.83 230.76L162.83 230.76Z" id="Shape" fill="#263238" stroke="none" />
        <path d="M142.06 226.81C143.599 224.538 146.415 223.501 149.06 224.23" id="Shape" fill="none" stroke="#263238" stroke-width="1.1930027" stroke-linecap="round" stroke-linejoin="round" />
        <path d="M162.3 224.6C162.3 224.6 167.08 223.13 168.56 227.18" id="Shape" fill="none" stroke="#263238" stroke-width="1.1930027" stroke-linecap="round" stroke-linejoin="round" />
        <path d="M178.44 411.62C178.44 411.62 183.71 408.46 186.63 407.22C186.904 407.094 187.184 406.984 187.47 406.89C190.05 406.03 197.36 406.46 204.23 402.16C211.1 397.86 207.67 392.7 202.51 391.41C197.35 390.12 191.77 388.41 191.77 388.41L190.48 368.2C190.48 368.2 175 372.5 169.84 374.65C164.68 376.8 167.69 407.32 168.12 409.9C168.55 412.48 168.55 414.2 178.44 411.62L178.44 411.62Z" id="Shape" fill="#263238" stroke="#263238" stroke-width="1.1930027" stroke-linecap="round" stroke-linejoin="round" />
        <path d="M195.64 402.16C186.64 403.88 186.64 405.6 176.72 407.32C173.814 407.9 170.851 408.142 167.89 408.04C167.99 408.96 168.07 409.61 168.12 409.9C168.55 412.48 168.55 414.2 178.44 411.62C178.44 411.62 183.71 408.46 186.63 407.22C186.904 407.094 187.184 406.984 187.47 406.89C190.05 406.03 197.36 406.46 204.23 402.16C206.44 400.79 207.57 399.32 207.94 397.92C204.036 399.847 199.903 401.272 195.64 402.16L195.64 402.16Z" id="Shape" fill="#FFFFFF" stroke="#263238" stroke-width="1.1930027" stroke-linecap="round" stroke-linejoin="round" />
        <path d="M199.22 391.15C199.22 391.15 198.89 414.61 198.22 419.63C197.55 424.65 198.55 431.03 206.22 431.03C213.89 431.03 229.01 426.03 234.37 425.03C239.73 424.03 248.45 421.67 252.13 413.3C255.81 404.93 233.37 405.92 233.37 405.92L234.71 388.83C234.71 388.83 211.62 393.49 199.22 391.15L199.22 391.15Z" id="Shape" fill="#263238" stroke="#263238" stroke-width="1.1930027" stroke-linecap="round" stroke-linejoin="round" />
        <path d="M252.17 413.27C252.581 412.457 252.68 411.521 252.45 410.64C250.153 413.759 247.038 416.181 243.45 417.64C235.45 420.99 220.32 424.64 208.93 426.36C203.72 427.12 200.42 426.27 198.35 425.13C199.09 428.38 201.26 431.05 206.25 431.05C213.96 431.05 229.04 426.05 234.4 425.05C239.76 424.05 248.49 421.64 252.17 413.27L252.17 413.27Z" id="Shape" fill="#FFFFFF" stroke="#263238" stroke-width="1.1930027" stroke-linecap="round" stroke-linejoin="round" />
        <path d="M233.41 405.89C233.41 405.89 235.08 411.59 230.41 415.28" id="Shape" fill="none" stroke="#FFFFFF" stroke-width="1.1930027" stroke-linecap="round" stroke-linejoin="round" />
        <path d="M196.88 378.75C196.88 378.75 196.36 388.94 196.93 390.98C199.07 398.72 199.75 396.91 215.84 396.57C231.93 396.23 238.43 389.81 240.11 385.79C241.79 381.77 240.11 373.05 239.44 370.03C238.77 367.01 233.44 366.03 231.39 366.35C229.34 366.67 197.88 375.4 196.88 378.75L196.88 378.75Z" id="Shape" fill="#757575" stroke="#263238" stroke-width="1.1930027" stroke-linecap="round" stroke-linejoin="round" />
        <path d="M86.28 404.22L86.28 426.74C86.2952 428.536 87.3038 430.176 88.8999 431L125.1 449.69C126.405 450.368 127.948 450.413 129.29 449.81L182.62 429.48C184.358 428.701 185.477 426.975 185.48 425.07L185.48 397.85L124.48 416.28L86.28 404.22Z" id="Shape" fill="#92E3A9" stroke="none" />
        <g id="Mask-Group" transform="translate(86.28 397.85)">
          <path d="M0 6.36999L0 28.89C0.0151596 30.6861 1.0238 32.3261 2.61995 33.15L38.82 51.84C40.1249 52.5185 41.6684 52.5626 43.01 51.96L96.34 31.63C98.078 30.8508 99.1975 29.1247 99.2 27.22L99.2 0L38.2 18.43L0 6.36999Z" id="Shape" fill="none" stroke="none" />
          <g clip-path="url(#mask_2)">
            <g id="Group" transform="translate(0 6.369995)">
              <path d="M40.89 11.25L38.21 12.06L0 0L0 22.52C0.0151596 24.3161 1.0238 25.9561 2.61995 26.78L38.82 45.47C39.4601 45.8047 40.168 45.9894 40.89 46.01L40.89 11.25Z" id="Shape" fill="#000000" fill-opacity="0.18" stroke="none" />
            </g>
          </g>
        </g>
        <path d="M86.28 404.22L86.28 426.74C86.2952 428.536 87.3038 430.176 88.8999 431L125.1 449.69C126.405 450.368 127.948 450.413 129.29 449.81L182.62 429.48C184.358 428.701 185.477 426.975 185.48 425.07L185.48 397.85L124.48 416.28L86.28 404.22Z" id="Shape" fill="none" stroke="#263238" stroke-width="1.1930027" stroke-linecap="round" stroke-linejoin="round" />
        <path d="M142 366.2L83.5 385C82.5618 385.301 81.9265 386.175 81.93 387.16L81.93 403.84C81.948 404.697 82.447 405.47 83.22 405.84L124 425.25C124.555 425.515 125.194 425.544 125.77 425.33L187 402.42C187.887 402.091 188.477 401.246 188.48 400.3L188.59 384.65C188.583 383.583 187.841 382.663 186.8 382.43L143.16 366.14C142.774 366.063 142.376 366.084 142 366.2L142 366.2Z" id="Shape" fill="#FFFFFF" stroke="none" />
        <g id="Mask-Group" transform="translate(81.92998 366.0944)">
          <path d="M60.07 0.105621L1.57002 18.9056C0.631798 19.2064 -0.00343323 20.0804 1.52588e-05 21.0656L2.28882e-05 37.7456C0.0180664 38.6023 0.517006 39.3759 1.29003 39.7456L42.07 59.1556C42.6248 59.4209 43.2635 59.4498 43.84 59.2356L105.07 36.3256C105.957 35.9964 106.547 35.1516 106.55 34.2056L106.66 18.5556C106.653 17.4891 105.911 16.5685 104.87 16.3356L61.23 0.0456238C60.8444 -0.0313416 60.4456 -0.0107117 60.07 0.105621L60.07 0.105621Z" id="Shape" fill="none" stroke="none" />
          <g clip-path="url(#mask_3)">
            <g id="Group" transform="translate(2.2888184E-05 17.105652)">
              <path d="M42 42.0399L42 42.0399C42.5548 42.3053 43.1935 42.3341 43.77 42.1199L105.07 19.22C105.957 18.8907 106.547 18.046 106.55 17.1L106.66 1.44998C106.662 0.917267 106.47 0.402039 106.12 0L42.87 23.36L42 42.0399Z" id="Shape" fill="#92E3A9" stroke="none" />
              <path d="M42 42.0399L42 42.0399C42.5548 42.3053 43.1935 42.3341 43.77 42.1199L105.07 19.22C105.957 18.8907 106.547 18.046 106.55 17.1L106.66 1.44998C106.662 0.917267 106.47 0.402039 106.12 0L42.87 23.36L42 42.0399Z" id="Shape" fill="#FFFFFF" fill-opacity="0.5" stroke="none" />
              <path d="M0 3.90994L0 20.5899C0.0180435 21.4467 0.516983 22.2202 1.29001 22.59L42.07 42.05C42.3422 42.1812 42.6381 42.256 42.94 42.27L42.94 23.36L0.0699997 3.51996C0.0312729 3.6467 0.00777435 3.77762 0 3.90994L0 3.90994Z" id="Shape" fill="#92E3A9" stroke="none" />
            </g>
          </g>
        </g>
        <path d="M142 366.2L83.5 385C82.5618 385.301 81.9265 386.175 81.93 387.16L81.93 403.84C81.948 404.697 82.447 405.47 83.22 405.84L124 425.25C124.555 425.515 125.194 425.544 125.77 425.33L187 402.42C187.887 402.091 188.477 401.246 188.48 400.3L188.59 384.65C188.583 383.583 187.841 382.663 186.8 382.43L143.16 366.14C142.774 366.063 142.376 366.084 142 366.2L142 366.2Z" id="Shape" fill="none" stroke="#263238" stroke-width="1.1930027" stroke-linecap="round" stroke-linejoin="round" />
        <path d="M222.35 335.52C222.35 335.52 230.05 339.2 234.08 346.58C238.11 353.96 235.08 368.02 232.73 372.38C230.38 376.74 214.64 378.75 209.28 378.75C203.92 378.75 202.91 378.08 202.91 378.08C202.91 378.08 185.82 381.43 175.09 383.44C164.36 385.45 167.09 360.32 170.4 348.92C173.71 337.52 192.52 331.83 200.23 331.83C207.94 331.83 222.35 335.52 222.35 335.52L222.35 335.52Z" id="Shape" fill="#263238" stroke="#263238" stroke-width="1.1930027" stroke-linecap="round" stroke-linejoin="round" />
        <path d="M202.91 378.08C202.91 378.08 217.32 373.08 223.35 360.32" id="Shape" fill="none" stroke="#FFFFFF" stroke-width="1.1930027" stroke-linecap="round" stroke-linejoin="round" />
        <path d="M216.65 370.7C221.294 368.753 225.508 365.909 229.05 362.33" id="Shape" fill="none" stroke="#FFFFFF" stroke-width="1.1930027" stroke-linecap="round" stroke-linejoin="round" />
        <path d="M182.8 346.58C182.8 346.58 186.8 367.69 184.8 376.4C182.8 385.11 171.06 386.46 168.38 385.45C165.7 384.44 167.04 363.67 167.04 353.28C167.04 342.89 177.44 343.56 182.8 346.58L182.8 346.58Z" id="Shape" fill="#757575" stroke="#263238" stroke-width="1.1930027" stroke-linecap="round" stroke-linejoin="round" />
        <path d="M97.34 290.27C97.34 290.27 95 304 96.67 310.72C97.5208 314.463 99.1158 317.996 101.36 321.11C101.36 321.11 92.98 333.51 94.66 343.89C96.34 354.27 100.66 355.62 100.66 355.62C100.66 355.62 96.98 374.73 103.66 381.43C110.34 388.13 125.11 395.5 141.53 392.49C157.95 389.48 169.01 388.8 172.36 383.1C175.71 377.4 173.7 352.27 173.7 352.27C173.7 352.27 173.03 324.46 172.36 307.36C171.69 290.26 169.36 276.53 161.3 269.83C153.24 263.13 117.73 273.52 107.01 280.55C96.29 287.58 97.34 290.27 97.34 290.27L97.34 290.27Z" id="Shape" fill="#92E3A9" stroke="none" />
        <g id="Mask-Group" transform="translate(94.437386 267.66995)">
          <path d="M2.90261 22.6C2.90261 22.6 0.562614 36.33 2.23261 43.05C3.08341 46.7929 4.67839 50.3263 6.92262 53.4401C6.92262 53.4401 -1.45738 65.8401 0.222618 76.2201C1.90262 86.6001 6.22262 87.9501 6.22262 87.9501C6.22262 87.9501 2.54262 107.06 9.22262 113.76C15.9026 120.46 30.6726 127.83 47.0926 124.82C63.5126 121.81 74.5726 121.13 77.9226 115.43C81.2726 109.73 79.2626 84.6001 79.2626 84.6001C79.2626 84.6001 78.5926 56.7901 77.9226 39.6901C77.2526 22.5901 74.9226 8.86008 66.8626 2.16006C58.8026 -4.53995 23.2926 5.85007 12.5726 12.8801C1.85262 19.9101 2.90261 22.6 2.90261 22.6L2.90261 22.6Z" id="Shape" fill="none" stroke="none" />
          <g clip-path="url(#mask_4)">
            <g id="Group" transform="translate(2.390007 0)">
              <path d="M2.90261 22.6C2.90261 22.6 0.552612 36.34 2.23261 43.05C3.07846 46.7945 4.67386 50.3289 6.92264 53.4401C6.92262 53.4401 -1.45738 65.8401 0.222618 76.2201C1.90262 86.6001 6.22262 87.9501 6.22262 87.9501C6.22262 87.9501 2.53262 107.06 9.22262 113.76C15.9126 120.46 30.7126 127.83 47.1726 124.82C63.6326 121.81 74.6626 121.13 78.0126 115.43C81.3626 109.73 79.3526 84.6 79.3526 84.6C79.3526 84.6 78.6826 56.79 78.0126 39.69C77.3426 22.59 75.0126 8.86005 66.9526 2.16003C58.8926 -4.53998 23.3826 5.85004 12.6626 12.88C1.9426 19.91 2.90261 22.6 2.90261 22.6L2.90261 22.6Z" id="Shape" fill="#000000" fill-opacity="0.3" stroke="none" />
            </g>
          </g>
        </g>
        <path d="M97.34 290.27C97.34 290.27 95 304 96.67 310.72C97.5208 314.463 99.1158 317.996 101.36 321.11C101.36 321.11 92.98 333.51 94.66 343.89C96.34 354.27 100.66 355.62 100.66 355.62C100.66 355.62 96.98 374.73 103.66 381.43C110.34 388.13 125.11 395.5 141.53 392.49C157.95 389.48 169.01 388.8 172.36 383.1C175.71 377.4 173.7 352.27 173.7 352.27C173.7 352.27 173.03 324.46 172.36 307.36C171.69 290.26 169.36 276.53 161.3 269.83C153.24 263.13 117.73 273.52 107.01 280.55C96.29 287.58 97.34 290.27 97.34 290.27L97.34 290.27Z" id="Shape" fill="none" stroke="#263238" stroke-width="1.1930027" stroke-linecap="round" stroke-linejoin="round" />
        <path d="M101.36 321.11C111.877 328.284 125.142 330.134 137.22 326.11" id="Shape" fill="none" stroke="#263238" stroke-width="1.1930027" stroke-linecap="round" stroke-linejoin="round" />
        <path d="M100.69 355.62C100.69 355.62 117.78 372.38 145.94 356.29" id="Shape" fill="none" stroke="#263238" stroke-width="1.1930027" stroke-linecap="round" stroke-linejoin="round" />
        <path d="M167.38 273.85C167.38 273.85 161.02 264.13 152.3 258.77C143.58 253.41 121.14 249.39 112.09 247.71C103.04 246.03 93.32 246.71 90.64 256.71C87.96 266.71 88.29 283.52 90.97 290.89C93.65 298.26 104.71 302.62 113.43 297.6C122.15 292.58 146.27 273.13 154.65 272.13C163.03 271.13 166.71 277.54 167.38 273.85L167.38 273.85Z" id="Shape" fill="#757575" stroke="none" />
        <g id="Mask-Group" transform="translate(88.78739 247.0005)">
          <path d="M78.5926 26.8495C78.5926 26.8495 72.2326 17.1295 63.5126 11.7695C54.7926 6.40953 32.3526 2.38951 23.3026 0.709518C14.2526 -0.970474 4.53262 -0.290482 1.85261 9.70952C-0.8274 19.7095 -0.497391 36.5195 2.18261 43.8895C4.86261 51.2595 15.9226 55.6195 24.6426 50.5995C33.3626 45.5795 57.4826 26.1295 65.8626 25.1295C74.2426 24.1295 77.9226 30.5395 78.5926 26.8495L78.5926 26.8495Z" id="Shape" fill="none" stroke="none" />
          <g clip-path="url(#mask_5)">
            <g id="Group" transform="translate(0 1.7795105)">
              <path d="M60.0026 23.22C65.1126 21.09 52.3326 24.92 51.4826 23.64C50.6326 22.36 60.4226 15.98 62.5526 15.13C64.6826 14.28 50.2026 17.26 50.6326 15.13C51.0626 13 64.6826 12.57 55.3126 10.44C45.9426 8.30998 15.3126 2.76999 9.3126 0.639984C8.85364 0.490814 8.41902 0.275192 8.02259 0C4.88168 1.62013 2.62162 4.55051 1.85261 7.99998C-0.8274 18.05 -0.497398 34.81 2.1826 42.18C4.5226 48.6 13.1826 52.73 21.1826 50.38C24.8726 47.38 28.2826 43.44 34.0526 39.81C45.5226 32.55 54.8926 25.31 60.0026 23.22L60.0026 23.22Z" id="Shape" fill="#000000" fill-opacity="0.3" stroke="none" />
            </g>
          </g>
        </g>
        <path d="M167.38 273.85C167.38 273.85 161.02 264.13 152.3 258.77C143.58 253.41 121.14 249.39 112.09 247.71C103.04 246.03 93.32 246.71 90.64 256.71C87.96 266.71 88.29 283.52 90.97 290.89C93.65 298.26 104.71 302.62 113.43 297.6C122.15 292.58 146.27 273.13 154.65 272.13C163.03 271.13 166.71 277.54 167.38 273.85L167.38 273.85Z" id="Shape" fill="none" stroke="#263238" stroke-width="1.1930027" stroke-linecap="round" stroke-linejoin="round" />
        <path d="M203.58 319.43C203.58 319.43 211.29 320.43 216.31 322.43C221.33 324.43 224.69 336.84 222.68 338.51C220.67 340.18 216.68 338.18 216.68 338.18C213.528 339.289 210.271 340.073 206.96 340.52C202.91 340.88 198.55 321.78 203.58 319.43L203.58 319.43Z" id="Shape" fill="#92E3A9" stroke="#263238" stroke-width="1.1930027" stroke-linecap="round" stroke-linejoin="round" />
        <path d="M178.11 318.42C178.11 318.42 179.45 318.42 186.82 315.07C194.19 311.72 200.23 311.72 204.92 319.07C209.61 326.42 211.62 335.5 208.92 340.86C206.22 346.22 196.19 349.91 190.82 349.91C185.45 349.91 184.82 342.91 184.82 342.91C184.82 342.91 184.15 331.85 180.82 327.83C177.49 323.81 176.77 319.43 178.11 318.42L178.11 318.42Z" id="Shape" fill="#757575" stroke="#263238" stroke-width="1.1930027" stroke-linecap="round" stroke-linejoin="round" />
        <path d="M153.31 273.85C160.68 271.17 170.07 272.85 173.42 282.23C176.77 291.61 179.78 319.09 179.78 319.09C179.78 319.09 188.16 320.09 191.51 323.79C194.86 327.49 196.51 336.86 195.87 341.55C195.23 346.24 183.47 354.95 170.07 355.29C156.67 355.63 146.94 349.29 142.25 332.16C137.56 315.03 139.42 289 139.42 289C139.42 289 141.12 281.33 143.68 279.62" id="Shape" fill="#92E3A9" stroke="none" />
        <g id="Mask-Group" transform="translate(139.05608 272.6975)">
          <path d="M14.2539 1.1525C21.6239 -1.5275 31.0139 0.152496 34.3639 9.5325C37.7139 18.9125 40.7239 46.3925 40.7239 46.3925C40.7239 46.3925 49.1039 47.3925 52.4539 51.0925C55.8039 54.7925 57.4539 64.1625 56.8139 68.8525C56.1739 73.5425 44.4139 82.2525 31.0139 82.5925C17.6139 82.9325 7.88391 76.5925 3.19392 59.4625C-1.49606 42.3325 0.363922 16.3025 0.363922 16.3025C0.363922 16.3025 2.06392 8.63248 4.62392 6.92249" id="Shape" fill="none" stroke="none" />
          <g clip-path="url(#mask_6)">
            <g id="Group" transform="translate(0.08352661 17.692688)">
              <path d="M56.7304 51.1598C57.4004 46.4698 55.7304 37.0798 52.3704 33.3998C52.2404 33.2498 52.0804 33.1098 51.9404 32.9698C52.342 35.9814 52.5824 39.0125 52.6604 42.0498C53.3304 61.7198 25.8404 58.4298 20.3004 44.1798C17.3004 36.5098 16.4604 2.85977 7.5204 0.309784C2.3604 -1.16022 0.600403 2.87979 0.0404053 6.56979C-0.139587 16.2198 0.180405 31.0898 3.11041 41.7698C7.80042 58.8698 17.5204 65.2298 30.9304 64.8998C44.3404 64.5698 56.0604 55.8498 56.7304 51.1598L56.7304 51.1598Z" id="Shape" fill="#000000" fill-opacity="0.3" stroke="none" />
            </g>
          </g>
        </g>
        <path d="M153.31 273.85C160.68 271.17 170.07 272.85 173.42 282.23C176.77 291.61 179.78 319.09 179.78 319.09C179.78 319.09 188.16 320.09 191.51 323.79C194.86 327.49 196.51 336.86 195.87 341.55C195.23 346.24 183.47 354.95 170.07 355.29C156.67 355.63 146.94 349.29 142.25 332.16C137.56 315.03 139.42 289 139.42 289C139.42 289 141.12 281.33 143.68 279.62" id="Shape" fill="none" stroke="#263238" stroke-width="1.1930027" stroke-linecap="round" stroke-linejoin="round" />
        <path d="M179.78 319.09C179.78 319.09 182.4 331.3 168.94 338" id="Shape" fill="none" stroke="#263238" stroke-width="1.1930027" stroke-linecap="round" stroke-linejoin="round" />
      </g>
      <g id="freepik--Text--inject-15" transform="translate(302 292.41)">
        <path d="M0 32.72L13.61 0.589996L21.76 0.589996L21.76 32.72L25.29 32.72L25.29 39.51L21.76 39.51L21.76 48.14L14.42 48.14L14.42 39.51L0 39.51L0 32.72ZM14.4 32.72L14.4 14.86L6.85999 32.72L14.4 32.72Z" id="Shape" fill="#263238" fill-rule="evenodd" stroke="none" />
        <path d="M28.08 12C28.08 4.39999 32.08 0 39.42 0C46.76 0 50.76 4.35001 50.76 12L50.76 36.72C50.76 44.33 46.76 48.72 39.42 48.72C32.08 48.72 28.08 44.37 28.08 36.72L28.08 12ZM35.55 37.2C35.55 40.6 37.04 41.89 39.42 41.89C41.8 41.89 43.29 40.6 43.29 37.2L43.29 11.53C43.29 8.13 41.79 6.84 39.42 6.84C37.05 6.84 35.55 8.13 35.55 11.53L35.55 37.2Z" id="Shape" fill="#263238" fill-rule="evenodd" stroke="none" />
        <path d="M53.82 32.72L67.4 0.589996L75.55 0.589996L75.55 32.72L79.08 32.72L79.08 39.51L75.55 39.51L75.55 48.14L68.21 48.14L68.21 39.51L53.82 39.51L53.82 32.72ZM68.21 32.72L68.21 14.86L60.68 32.72L68.21 32.72Z" id="Shape" fill="#263238" fill-rule="evenodd" stroke="none" />
      </g>
    </g>
  </g>
</svg>